<?xml version="1.0" encoding="UTF-8"?>
<svg version="1.1" xmlns="http://www.w3.org/2000/svg" width="32" height="32">
    <path
        d="M0 0 C3.79692894 1.86969986 6.11779509 4.23559018 8 8 C9.21138847 21.53994957 9.21138847 21.53994957 6.73046875 26.578125 C3.62752131 30.17180623 1.36971768 31.87745448 -3.44921875 32.30859375 C-16.14799642 32.82875204 -16.14799642 32.82875204 -20.4375 29.125 C-25.03005972 24.16071873 -24.54623381 18.37847064 -24.42578125 11.953125 C-23.92336228 7.28846449 -22.88858435 5.19402852 -19.5078125 2.06640625 C-14.20146802 -1.6865265 -6.20553979 -0.66838324 0 0 Z "
        fill="#10FB7D" transform="translate(24,0)" />
    <path
        d="M0 0 C1.65 0 3.3 0 5 0 C5 2.31 5 4.62 5 7 C3.68 7 2.36 7 1 7 C1 8.32 1 9.64 1 11 C-3.29 11 -7.58 11 -12 11 C-12 9.35 -12 7.7 -12 6 C-8.04 6 -4.08 6 0 6 C0 4.02 0 2.04 0 0 Z "
        fill="#123923" transform="translate(22,16)" />
    <path
        d="M0 0 C4.29 0 8.58 0 13 0 C13 1.65 13 3.3 13 5 C9.04 5 5.08 5 1 5 C1 6.98 1 8.96 1 11 C-0.65 11 -2.3 11 -4 11 C-4 8.69 -4 6.38 -4 4 C-2.68 4 -1.36 4 0 4 C0 2.68 0 1.36 0 0 Z "
        fill="#123923" transform="translate(9,5)" />
    <path
        d="M0 0 C3.96 0 7.92 0 12 0 C10.02 0.99 10.02 0.99 8 2 C8 3.98 8 5.96 8 8 C6.35 8 4.7 8 3 8 C3 6.68 3 5.36 3 4 C2.34 4 1.68 4 1 4 C0.67 4.66 0.34 5.32 0 6 C0 4.02 0 2.04 0 0 Z "
        fill="#12A254" transform="translate(10,10)" />
    <path
        d="M0 0 C0.66 0 1.32 0 2 0 C2 0.66 2 1.32 2 2 C2.66 2 3.32 2 4 2 C4 3.98 4 5.96 4 8 C0.04 8 -3.92 8 -8 8 C-6.68 7.34 -5.36 6.68 -4 6 C-4 5.34 -4 4.68 -4 4 C-2.68 4 -1.36 4 0 4 C0 2.68 0 1.36 0 0 Z "
        fill="#12DD70" transform="translate(18,14)" />
    <path
        d="M0 0 C3.63 0 7.26 0 11 0 C11 0.99 11 1.98 11 3 C7.37 3 3.74 3 0 3 C0 2.01 0 1.02 0 0 Z "
        fill="#121412" transform="translate(11,23)" />
    <path
        d="M0 0 C3.63 0 7.26 0 11 0 C11 0.99 11 1.98 11 3 C7.37 3 3.74 3 0 3 C0 2.01 0 1.02 0 0 Z "
        fill="#121412" transform="translate(10,6)" />
</svg>